<mxfile host="app.diagrams.net" modified="2024-05-09T01:04:10.664Z" agent="Mozilla/5.0 (Windows NT 10.0; Win64; x64) AppleWebKit/537.36 (KHTML, like Gecko) Chrome/124.0.0.0 Safari/537.36" etag="x6I8DL7XswzUeuLRtMov" version="24.2.3" type="google">
  <diagram name="Página-1" id="jfTaKeymyc3jLOlq6_Pa">
    <mxGraphModel dx="1185" dy="647" grid="1" gridSize="10" guides="1" tooltips="1" connect="1" arrows="1" fold="1" page="1" pageScale="1" pageWidth="827" pageHeight="1169" math="0" shadow="0">
      <root>
        <mxCell id="0" />
        <mxCell id="1" parent="0" />
        <mxCell id="3rXu2008g0fKP-5y-TBy-28" style="edgeStyle=orthogonalEdgeStyle;rounded=0;orthogonalLoop=1;jettySize=auto;html=1;exitX=0.5;exitY=0.5;exitDx=0;exitDy=0;exitPerimeter=0;" parent="1" source="3rXu2008g0fKP-5y-TBy-1" target="3rXu2008g0fKP-5y-TBy-2" edge="1">
          <mxGeometry relative="1" as="geometry" />
        </mxCell>
        <mxCell id="3rXu2008g0fKP-5y-TBy-1" value="Usuário" style="shape=umlActor;verticalLabelPosition=bottom;verticalAlign=top;html=1;outlineConnect=0;" parent="1" vertex="1">
          <mxGeometry x="40" y="80" width="40" height="70" as="geometry" />
        </mxCell>
        <mxCell id="3rXu2008g0fKP-5y-TBy-16" style="edgeStyle=orthogonalEdgeStyle;rounded=0;orthogonalLoop=1;jettySize=auto;html=1;exitX=1;exitY=0.5;exitDx=0;exitDy=0;entryX=0;entryY=0.5;entryDx=0;entryDy=0;" parent="1" source="3rXu2008g0fKP-5y-TBy-2" target="3rXu2008g0fKP-5y-TBy-3" edge="1">
          <mxGeometry relative="1" as="geometry" />
        </mxCell>
        <mxCell id="3rXu2008g0fKP-5y-TBy-2" value="Buscar URLs" style="ellipse;whiteSpace=wrap;html=1;" parent="1" vertex="1">
          <mxGeometry x="130" y="95" width="120" height="40" as="geometry" />
        </mxCell>
        <mxCell id="3rXu2008g0fKP-5y-TBy-17" style="edgeStyle=orthogonalEdgeStyle;rounded=0;orthogonalLoop=1;jettySize=auto;html=1;exitX=1;exitY=0.5;exitDx=0;exitDy=0;entryX=0;entryY=0.5;entryDx=0;entryDy=0;" parent="1" source="3rXu2008g0fKP-5y-TBy-3" target="3rXu2008g0fKP-5y-TBy-4" edge="1">
          <mxGeometry relative="1" as="geometry" />
        </mxCell>
        <mxCell id="3rXu2008g0fKP-5y-TBy-3" value="Alimenta URLs" style="ellipse;whiteSpace=wrap;html=1;" parent="1" vertex="1">
          <mxGeometry x="300" y="95" width="120" height="40" as="geometry" />
        </mxCell>
        <mxCell id="3rXu2008g0fKP-5y-TBy-18" style="edgeStyle=orthogonalEdgeStyle;rounded=0;orthogonalLoop=1;jettySize=auto;html=1;exitX=0.5;exitY=1;exitDx=0;exitDy=0;entryX=0.5;entryY=0;entryDx=0;entryDy=0;" parent="1" source="3rXu2008g0fKP-5y-TBy-4" target="3rXu2008g0fKP-5y-TBy-5" edge="1">
          <mxGeometry relative="1" as="geometry" />
        </mxCell>
        <mxCell id="3rXu2008g0fKP-5y-TBy-4" value="&lt;font style=&quot;font-size: 10px;&quot;&gt;Resolvedor de DNS personalizado&lt;/font&gt;" style="ellipse;whiteSpace=wrap;html=1;" parent="1" vertex="1">
          <mxGeometry x="470" y="95" width="120" height="40" as="geometry" />
        </mxCell>
        <mxCell id="3rXu2008g0fKP-5y-TBy-19" style="edgeStyle=orthogonalEdgeStyle;rounded=0;orthogonalLoop=1;jettySize=auto;html=1;exitX=0.5;exitY=1;exitDx=0;exitDy=0;entryX=0.5;entryY=0;entryDx=0;entryDy=0;" parent="1" source="3rXu2008g0fKP-5y-TBy-5" target="3rXu2008g0fKP-5y-TBy-6" edge="1">
          <mxGeometry relative="1" as="geometry" />
        </mxCell>
        <mxCell id="3rXu2008g0fKP-5y-TBy-5" value="Buscar Dados" style="ellipse;whiteSpace=wrap;html=1;" parent="1" vertex="1">
          <mxGeometry x="470" y="180" width="120" height="40" as="geometry" />
        </mxCell>
        <mxCell id="3rXu2008g0fKP-5y-TBy-20" style="edgeStyle=orthogonalEdgeStyle;rounded=0;orthogonalLoop=1;jettySize=auto;html=1;exitX=0.5;exitY=1;exitDx=0;exitDy=0;entryX=0.5;entryY=0;entryDx=0;entryDy=0;" parent="1" source="3rXu2008g0fKP-5y-TBy-6" target="3rXu2008g0fKP-5y-TBy-7" edge="1">
          <mxGeometry relative="1" as="geometry" />
        </mxCell>
        <mxCell id="3rXu2008g0fKP-5y-TBy-21" style="edgeStyle=orthogonalEdgeStyle;rounded=0;orthogonalLoop=1;jettySize=auto;html=1;exitX=1;exitY=0.5;exitDx=0;exitDy=0;entryX=0;entryY=0.5;entryDx=0;entryDy=0;" parent="1" source="3rXu2008g0fKP-5y-TBy-6" target="3rXu2008g0fKP-5y-TBy-8" edge="1">
          <mxGeometry relative="1" as="geometry" />
        </mxCell>
        <mxCell id="3rXu2008g0fKP-5y-TBy-6" value="Cache" style="ellipse;whiteSpace=wrap;html=1;" parent="1" vertex="1">
          <mxGeometry x="470" y="270" width="120" height="40" as="geometry" />
        </mxCell>
        <mxCell id="3rXu2008g0fKP-5y-TBy-23" style="edgeStyle=orthogonalEdgeStyle;rounded=0;orthogonalLoop=1;jettySize=auto;html=1;exitX=0;exitY=0.5;exitDx=0;exitDy=0;entryX=1;entryY=0.5;entryDx=0;entryDy=0;" parent="1" source="3rXu2008g0fKP-5y-TBy-7" target="3rXu2008g0fKP-5y-TBy-10" edge="1">
          <mxGeometry relative="1" as="geometry" />
        </mxCell>
        <mxCell id="3rXu2008g0fKP-5y-TBy-7" value="Extrai links" style="ellipse;whiteSpace=wrap;html=1;" parent="1" vertex="1">
          <mxGeometry x="470" y="360" width="120" height="40" as="geometry" />
        </mxCell>
        <mxCell id="3rXu2008g0fKP-5y-TBy-22" style="edgeStyle=orthogonalEdgeStyle;rounded=0;orthogonalLoop=1;jettySize=auto;html=1;exitX=0.5;exitY=1;exitDx=0;exitDy=0;entryX=0.5;entryY=0;entryDx=0;entryDy=0;" parent="1" source="3rXu2008g0fKP-5y-TBy-8" target="3rXu2008g0fKP-5y-TBy-9" edge="1">
          <mxGeometry relative="1" as="geometry" />
        </mxCell>
        <mxCell id="3rXu2008g0fKP-5y-TBy-8" value="Verificar Conteúdo Visto" style="ellipse;whiteSpace=wrap;html=1;" parent="1" vertex="1">
          <mxGeometry x="640" y="270" width="120" height="40" as="geometry" />
        </mxCell>
        <mxCell id="3rXu2008g0fKP-5y-TBy-9" value="Armazenar" style="ellipse;whiteSpace=wrap;html=1;" parent="1" vertex="1">
          <mxGeometry x="640" y="360" width="120" height="40" as="geometry" />
        </mxCell>
        <mxCell id="3rXu2008g0fKP-5y-TBy-24" style="edgeStyle=orthogonalEdgeStyle;rounded=0;orthogonalLoop=1;jettySize=auto;html=1;exitX=0;exitY=0.5;exitDx=0;exitDy=0;entryX=1;entryY=0.5;entryDx=0;entryDy=0;" parent="1" source="3rXu2008g0fKP-5y-TBy-10" target="3rXu2008g0fKP-5y-TBy-11" edge="1">
          <mxGeometry relative="1" as="geometry" />
        </mxCell>
        <mxCell id="3rXu2008g0fKP-5y-TBy-10" value="Filtra URL" style="ellipse;whiteSpace=wrap;html=1;" parent="1" vertex="1">
          <mxGeometry x="300" y="360" width="120" height="40" as="geometry" />
        </mxCell>
        <mxCell id="3rXu2008g0fKP-5y-TBy-11" value="URL De-Dup" style="ellipse;whiteSpace=wrap;html=1;" parent="1" vertex="1">
          <mxGeometry x="130" y="360" width="120" height="40" as="geometry" />
        </mxCell>
        <mxCell id="3rXu2008g0fKP-5y-TBy-12" value="URL Set" style="shape=umlActor;verticalLabelPosition=bottom;verticalAlign=top;html=1;outlineConnect=0;" parent="1" vertex="1">
          <mxGeometry x="170" y="420" width="40" height="70" as="geometry" />
        </mxCell>
        <mxCell id="3rXu2008g0fKP-5y-TBy-13" value="Root templates" style="shape=umlActor;verticalLabelPosition=bottom;verticalAlign=top;html=1;outlineConnect=0;" parent="1" vertex="1">
          <mxGeometry x="340" y="420" width="40" height="70" as="geometry" />
        </mxCell>
        <mxCell id="3rXu2008g0fKP-5y-TBy-29" style="edgeStyle=orthogonalEdgeStyle;rounded=0;orthogonalLoop=1;jettySize=auto;html=1;exitX=0.5;exitY=0.5;exitDx=0;exitDy=0;exitPerimeter=0;entryX=1;entryY=0.5;entryDx=0;entryDy=0;" parent="1" source="3rXu2008g0fKP-5y-TBy-14" target="3rXu2008g0fKP-5y-TBy-5" edge="1">
          <mxGeometry relative="1" as="geometry" />
        </mxCell>
        <mxCell id="3rXu2008g0fKP-5y-TBy-14" value="Internet" style="shape=umlActor;verticalLabelPosition=bottom;verticalAlign=top;html=1;outlineConnect=0;" parent="1" vertex="1">
          <mxGeometry x="630" y="165" width="40" height="70" as="geometry" />
        </mxCell>
        <mxCell id="3rXu2008g0fKP-5y-TBy-30" style="edgeStyle=orthogonalEdgeStyle;rounded=0;orthogonalLoop=1;jettySize=auto;html=1;exitX=0.5;exitY=0.5;exitDx=0;exitDy=0;exitPerimeter=0;entryX=1;entryY=0.5;entryDx=0;entryDy=0;" parent="1" source="3rXu2008g0fKP-5y-TBy-15" target="3rXu2008g0fKP-5y-TBy-8" edge="1">
          <mxGeometry relative="1" as="geometry" />
        </mxCell>
        <mxCell id="3rXu2008g0fKP-5y-TBy-15" value="Doc FPS" style="shape=umlActor;verticalLabelPosition=bottom;verticalAlign=top;html=1;outlineConnect=0;" parent="1" vertex="1">
          <mxGeometry x="787" y="255" width="40" height="70" as="geometry" />
        </mxCell>
      </root>
    </mxGraphModel>
  </diagram>
</mxfile>
